<svg xmlns="http://www.w3.org/2000/svg" xmlns:xlink="http://www.w3.org/1999/xlink" width="500" zoomAndPan="magnify" viewBox="0 0 375 374.999991" height="500" preserveAspectRatio="xMidYMid meet" version="1.0"><defs><g/><clipPath id="f5ba6b8af9"><path d="M 19.136719 87.6875 L 355.878906 87.6875 L 355.878906 280 L 19.136719 280 Z M 19.136719 87.6875 " clip-rule="nonzero"/></clipPath><clipPath id="843ecc535e"><path d="M 200.453125 93.632812 L 353.113281 265.425781 C 355.40625 268.003906 355.96875 271.6875 354.558594 274.832031 C 353.144531 277.976562 350.015625 280 346.566406 280 L 28.433594 280 C 24.984375 280 21.855469 277.976562 20.441406 274.832031 C 19.03125 271.6875 19.59375 268.003906 21.886719 265.425781 L 174.546875 93.632812 C 177.835938 89.929688 182.550781 87.8125 187.5 87.8125 C 192.449219 87.8125 197.164062 89.929688 200.453125 93.632812 Z M 200.453125 93.632812 " clip-rule="nonzero"/></clipPath><clipPath id="dba4f326b0"><path d="M 132.34375 135.859375 L 158.59375 135.859375 L 158.59375 176.359375 L 132.34375 176.359375 Z M 132.34375 135.859375 " clip-rule="nonzero"/></clipPath><clipPath id="02aed34fc7"><path d="M 106.15625 164.804688 L 132.40625 164.804688 L 132.40625 205.304688 L 106.15625 205.304688 Z M 106.15625 164.804688 " clip-rule="nonzero"/></clipPath><clipPath id="6b39bdded1"><path d="M 106.15625 103.777344 L 132.40625 103.777344 L 132.40625 144.277344 L 106.15625 144.277344 Z M 106.15625 103.777344 " clip-rule="nonzero"/></clipPath></defs><g clip-path="url(#f5ba6b8af9)"><g clip-path="url(#843ecc535e)"><path fill="#1e4794" d="M 8.933594 79.054688 L 366.085938 79.054688 L 366.085938 280 L 8.933594 280 Z M 8.933594 79.054688 " fill-opacity="1" fill-rule="nonzero"/></g></g><g clip-path="url(#dba4f326b0)"><path fill="#ffffff" d="M 154.808594 152.140625 L 145.433594 135.859375 L 136.054688 152.140625 C 134.707031 154.359375 132.34375 159.746094 132.34375 162.59375 C 132.34375 170.386719 138.203125 176.699219 145.433594 176.699219 C 152.664062 176.699219 158.523438 170.386719 158.523438 162.59375 C 158.523438 159.746094 156.160156 154.359375 154.808594 152.140625 Z M 154.808594 152.140625 " fill-opacity="1" fill-rule="nonzero"/></g><g fill="#ffffff" fill-opacity="1"><g transform="translate(63.070877, 272.063819)"><g><path d="M 56.984375 0 C 62.109375 0 66.476562 -1.804688 70.09375 -5.421875 C 73.707031 -9.035156 75.515625 -13.398438 75.515625 -18.515625 L 66.25 -18.515625 C 66.25 -15.941406 65.34375 -13.753906 63.53125 -11.953125 C 61.71875 -10.160156 59.535156 -9.265625 56.984375 -9.265625 L 24.609375 -9.265625 C 22.035156 -9.265625 19.847656 -10.160156 18.046875 -11.953125 C 16.253906 -13.753906 15.359375 -15.941406 15.359375 -18.515625 L 15.359375 -39.765625 C 15.359375 -42.304688 16.253906 -44.484375 18.046875 -46.296875 C 19.847656 -48.117188 22.035156 -49.03125 24.609375 -49.03125 L 56.984375 -49.03125 C 59.535156 -49.03125 61.71875 -48.117188 63.53125 -46.296875 C 65.34375 -44.484375 66.25 -42.304688 66.25 -39.765625 L 75.515625 -39.765625 C 75.515625 -44.859375 73.707031 -49.210938 70.09375 -52.828125 C 66.476562 -56.441406 62.109375 -58.25 56.984375 -58.25 L 24.609375 -58.25 C 19.492188 -58.25 15.128906 -56.441406 11.515625 -52.828125 C 7.898438 -49.210938 6.09375 -44.859375 6.09375 -39.765625 L 6.09375 -18.515625 C 6.09375 -13.398438 7.898438 -9.035156 11.515625 -5.421875 C 15.128906 -1.804688 19.492188 0 24.609375 0 Z M 56.984375 0 "/></g></g></g><g fill="#ffffff" fill-opacity="1"><g transform="translate(144.666187, 272.063819)"><g><path d="M 17.390625 0 L 8.125 0 L 8.125 -58.25 L 63.65625 -58.25 C 67.46875 -58.25 70.734375 -56.894531 73.453125 -54.1875 C 76.179688 -51.476562 77.546875 -48.210938 77.546875 -44.390625 L 77.546875 -34.9375 C 77.546875 -31.09375 76.179688 -27.816406 73.453125 -25.109375 C 70.734375 -22.398438 67.46875 -21.046875 63.65625 -21.046875 L 17.390625 -21.046875 Z M 63.65625 -30.296875 C 64.925781 -30.296875 66.015625 -30.75 66.921875 -31.65625 C 67.828125 -32.5625 68.28125 -33.65625 68.28125 -34.9375 L 68.28125 -44.390625 C 68.28125 -45.671875 67.828125 -46.765625 66.921875 -47.671875 C 66.015625 -48.578125 64.925781 -49.03125 63.65625 -49.03125 L 17.390625 -49.03125 L 17.390625 -30.296875 Z M 63.65625 -30.296875 "/></g></g></g><g fill="#ffffff" fill-opacity="1"><g transform="translate(228.292248, 272.063819)"><g><path d="M 77.546875 0 L 68.28125 0 L 68.28125 -16.40625 C 68.28125 -17.675781 67.828125 -18.765625 66.921875 -19.671875 C 66.015625 -20.585938 64.925781 -21.046875 63.65625 -21.046875 L 17.390625 -21.046875 L 17.390625 0 L 8.125 0 L 8.125 -58.25 L 63.65625 -58.25 C 67.46875 -58.25 70.734375 -56.894531 73.453125 -54.1875 C 76.179688 -51.476562 77.546875 -48.210938 77.546875 -44.390625 L 77.546875 -34.9375 C 77.546875 -31.363281 76.351562 -28.273438 73.96875 -25.671875 C 76.351562 -23.046875 77.546875 -19.957031 77.546875 -16.40625 Z M 63.65625 -30.296875 C 64.925781 -30.296875 66.015625 -30.75 66.921875 -31.65625 C 67.828125 -32.5625 68.28125 -33.65625 68.28125 -34.9375 L 68.28125 -44.390625 C 68.28125 -45.671875 67.828125 -46.765625 66.921875 -47.671875 C 66.015625 -48.578125 64.925781 -49.03125 63.65625 -49.03125 L 17.390625 -49.03125 L 17.390625 -30.296875 Z M 63.65625 -30.296875 "/></g></g></g><g fill="#1e4794" fill-opacity="1"><g transform="translate(24.087833, 307.448022)"><g><path d="M 8.6875 0.171875 C 7.195312 0.171875 5.894531 -0.078125 4.78125 -0.578125 C 3.675781 -1.085938 2.820312 -1.816406 2.21875 -2.765625 C 1.613281 -3.710938 1.3125 -4.835938 1.3125 -6.140625 C 1.3125 -7.441406 1.613281 -8.566406 2.21875 -9.515625 C 2.832031 -10.460938 3.691406 -11.191406 4.796875 -11.703125 C 5.898438 -12.222656 7.203125 -12.484375 8.703125 -12.484375 C 9.796875 -12.484375 10.796875 -12.347656 11.703125 -12.078125 C 12.609375 -11.816406 13.375 -11.421875 14 -10.890625 L 13.078125 -8.9375 C 12.421875 -9.40625 11.753906 -9.742188 11.078125 -9.953125 C 10.410156 -10.171875 9.65625 -10.28125 8.8125 -10.28125 C 7.3125 -10.28125 6.140625 -9.925781 5.296875 -9.21875 C 4.453125 -8.507812 4.03125 -7.484375 4.03125 -6.140625 C 4.03125 -4.816406 4.445312 -3.800781 5.28125 -3.09375 C 6.125 -2.382812 7.300781 -2.03125 8.8125 -2.03125 C 9.65625 -2.03125 10.410156 -2.132812 11.078125 -2.34375 C 11.753906 -2.5625 12.421875 -2.90625 13.078125 -3.375 L 14 -1.40625 C 13.375 -0.882812 12.601562 -0.488281 11.6875 -0.21875 C 10.78125 0.0390625 9.78125 0.171875 8.6875 0.171875 Z M 8.6875 0.171875 "/></g></g></g><g fill="#1e4794" fill-opacity="1"><g transform="translate(40.585193, 307.448022)"><g><path d="M 1.84375 0 L 1.84375 -12.296875 L 4.453125 -12.296875 L 4.453125 -2.140625 L 11.90625 -2.140625 L 11.90625 0 Z M 1.84375 0 "/></g></g></g><g fill="#1e4794" fill-opacity="1"><g transform="translate(54.519133, 307.448022)"><g><path d="M 1.84375 0 L 1.84375 -12.296875 L 12.046875 -12.296875 L 12.046875 -10.28125 L 4.375 -10.28125 L 4.375 -7.265625 L 11.46875 -7.265625 L 11.46875 -5.234375 L 4.375 -5.234375 L 4.375 -2.03125 L 12.046875 -2.03125 L 12.046875 0 Z M 1.84375 0 "/></g></g></g><g fill="#1e4794" fill-opacity="1"><g transform="translate(69.342422, 307.448022)"><g><path d="M 0.203125 0 L 7.03125 -12.296875 L 9.34375 -12.296875 L 16.140625 0 L 13.453125 0 L 11.609375 -3.4375 L 12.796875 -2.65625 L 3.53125 -2.65625 L 4.71875 -3.4375 L 2.859375 0 Z M 8.140625 -9.90625 L 5.03125 -4.0625 L 4.375 -4.640625 L 11.9375 -4.640625 L 11.296875 -4.0625 L 8.1875 -9.90625 Z M 8.140625 -9.90625 "/></g></g></g><g fill="#1e4794" fill-opacity="1"><g transform="translate(87.234841, 307.448022)"><g><path d="M 1.84375 0 L 1.84375 -12.296875 L 3.96875 -12.296875 L 12.71875 -3.234375 L 12.390625 -3.234375 L 12.390625 -12.296875 L 14.90625 -12.296875 L 14.90625 0 L 12.734375 0 L 4.046875 -9.046875 L 4.359375 -9.046875 L 4.359375 0 Z M 1.84375 0 "/></g></g></g><g fill="#1e4794" fill-opacity="1"><g transform="translate(105.528339, 307.448022)"><g/></g></g><g fill="#6acdeb" fill-opacity="1"><g transform="translate(112.994927, 307.448022)"><g><path d="M 1.9375 3.140625 L 1.9375 -12.296875 L 4.3125 -12.296875 L 4.3125 3.140625 Z M 1.9375 3.140625 "/></g></g></g><g fill="#1e4794" fill-opacity="1"><g transform="translate(120.793305, 307.448022)"><g/></g></g><g fill="#1e4794" fill-opacity="1"><g transform="translate(128.25766, 307.448022)"><g><path d="M 1.84375 0 L 1.84375 -12.296875 L 8.703125 -12.296875 C 9.796875 -12.296875 10.71875 -12.148438 11.46875 -11.859375 C 12.21875 -11.566406 12.785156 -11.128906 13.171875 -10.546875 C 13.566406 -9.972656 13.765625 -9.257812 13.765625 -8.40625 C 13.765625 -7.570312 13.566406 -6.859375 13.171875 -6.265625 C 12.785156 -5.679688 12.21875 -5.238281 11.46875 -4.9375 C 10.71875 -4.632812 9.796875 -4.484375 8.703125 -4.484375 L 4.453125 -4.484375 L 4.453125 0 Z M 4.453125 -6.46875 L 8.375 -6.46875 C 9.34375 -6.46875 10.054688 -6.625 10.515625 -6.9375 C 10.972656 -7.25 11.203125 -7.738281 11.203125 -8.40625 C 11.203125 -9.082031 10.976562 -9.566406 10.53125 -9.859375 C 10.082031 -10.148438 9.363281 -10.296875 8.375 -10.296875 L 4.453125 -10.296875 Z M 4.453125 -6.46875 "/></g></g></g><g fill="#1e4794" fill-opacity="1"><g transform="translate(144.319064, 307.448022)"><g><path d="M 1.84375 0 L 1.84375 -12.296875 L 8.65625 -12.296875 C 10.3125 -12.296875 11.570312 -11.984375 12.4375 -11.359375 C 13.3125 -10.742188 13.75 -9.84375 13.75 -8.65625 C 13.75 -7.882812 13.5625 -7.234375 13.1875 -6.703125 C 12.8125 -6.179688 12.265625 -5.769531 11.546875 -5.46875 C 10.835938 -5.175781 9.984375 -5.003906 8.984375 -4.953125 L 9.140625 -5.109375 L 9.78125 -5.09375 C 10.25 -5.070312 10.671875 -4.953125 11.046875 -4.734375 C 11.429688 -4.523438 11.785156 -4.191406 12.109375 -3.734375 L 14.71875 0 L 11.828125 0 L 9.3125 -3.703125 C 9.144531 -3.953125 8.96875 -4.148438 8.78125 -4.296875 C 8.601562 -4.441406 8.378906 -4.546875 8.109375 -4.609375 C 7.835938 -4.679688 7.476562 -4.71875 7.03125 -4.71875 L 4.453125 -4.71875 L 4.453125 0 Z M 4.453125 -6.609375 L 8.390625 -6.609375 C 9.378906 -6.609375 10.09375 -6.765625 10.53125 -7.078125 C 10.976562 -7.398438 11.203125 -7.875 11.203125 -8.5 C 11.203125 -9.113281 10.976562 -9.566406 10.53125 -9.859375 C 10.082031 -10.148438 9.359375 -10.296875 8.359375 -10.296875 L 4.453125 -10.296875 Z M 4.453125 -6.609375 "/></g></g></g><g fill="#1e4794" fill-opacity="1"><g transform="translate(161.095436, 307.448022)"><g><path d="M 8.65625 0.171875 C 7.539062 0.171875 6.535156 0.0234375 5.640625 -0.265625 C 4.742188 -0.554688 3.96875 -0.976562 3.3125 -1.53125 C 2.664062 -2.082031 2.171875 -2.742188 1.828125 -3.515625 C 1.484375 -4.296875 1.3125 -5.171875 1.3125 -6.140625 C 1.3125 -7.109375 1.484375 -7.976562 1.828125 -8.75 C 2.179688 -9.519531 2.679688 -10.1875 3.328125 -10.75 C 3.972656 -11.3125 4.742188 -11.738281 5.640625 -12.03125 C 6.546875 -12.332031 7.554688 -12.484375 8.671875 -12.484375 C 9.773438 -12.484375 10.773438 -12.332031 11.671875 -12.03125 C 12.566406 -11.726562 13.332031 -11.304688 13.96875 -10.765625 C 14.613281 -10.222656 15.113281 -9.5625 15.46875 -8.78125 C 15.820312 -8 16 -7.128906 16 -6.171875 C 16 -5.210938 15.820312 -4.34375 15.46875 -3.5625 C 15.125 -2.78125 14.628906 -2.109375 13.984375 -1.546875 C 13.335938 -0.992188 12.566406 -0.566406 11.671875 -0.265625 C 10.773438 0.0234375 9.769531 0.171875 8.65625 0.171875 Z M 8.65625 -1.96875 C 9.625 -1.96875 10.453125 -2.132812 11.140625 -2.46875 C 11.835938 -2.8125 12.375 -3.296875 12.75 -3.921875 C 13.125 -4.554688 13.3125 -5.300781 13.3125 -6.15625 C 13.3125 -7.03125 13.125 -7.78125 12.75 -8.40625 C 12.382812 -9.039062 11.851562 -9.519531 11.15625 -9.84375 C 10.457031 -10.164062 9.625 -10.328125 8.65625 -10.328125 C 7.6875 -10.328125 6.851562 -10.160156 6.15625 -9.828125 C 5.46875 -9.503906 4.9375 -9.023438 4.5625 -8.390625 C 4.1875 -7.765625 4 -7.015625 4 -6.140625 C 4 -5.265625 4.179688 -4.515625 4.546875 -3.890625 C 4.921875 -3.273438 5.457031 -2.800781 6.15625 -2.46875 C 6.851562 -2.132812 7.6875 -1.96875 8.65625 -1.96875 Z M 8.65625 -1.96875 "/></g></g></g><g fill="#1e4794" fill-opacity="1"><g transform="translate(179.929519, 307.448022)"><g><path d="M 5.53125 0 L 5.53125 -10.1875 L 0.203125 -10.1875 L 0.203125 -12.296875 L 13.46875 -12.296875 L 13.46875 -10.1875 L 8.15625 -10.1875 L 8.15625 0 Z M 5.53125 0 "/></g></g></g><g fill="#1e4794" fill-opacity="1"><g transform="translate(195.13645, 307.448022)"><g><path d="M 1.84375 0 L 1.84375 -12.296875 L 12.046875 -12.296875 L 12.046875 -10.28125 L 4.375 -10.28125 L 4.375 -7.265625 L 11.46875 -7.265625 L 11.46875 -5.234375 L 4.375 -5.234375 L 4.375 -2.03125 L 12.046875 -2.03125 L 12.046875 0 Z M 1.84375 0 "/></g></g></g><g fill="#1e4794" fill-opacity="1"><g transform="translate(209.959739, 307.448022)"><g><path d="M 8.6875 0.171875 C 7.195312 0.171875 5.894531 -0.078125 4.78125 -0.578125 C 3.675781 -1.085938 2.820312 -1.816406 2.21875 -2.765625 C 1.613281 -3.710938 1.3125 -4.835938 1.3125 -6.140625 C 1.3125 -7.441406 1.613281 -8.566406 2.21875 -9.515625 C 2.832031 -10.460938 3.691406 -11.191406 4.796875 -11.703125 C 5.898438 -12.222656 7.203125 -12.484375 8.703125 -12.484375 C 9.796875 -12.484375 10.796875 -12.347656 11.703125 -12.078125 C 12.609375 -11.816406 13.375 -11.421875 14 -10.890625 L 13.078125 -8.9375 C 12.421875 -9.40625 11.753906 -9.742188 11.078125 -9.953125 C 10.410156 -10.171875 9.65625 -10.28125 8.8125 -10.28125 C 7.3125 -10.28125 6.140625 -9.925781 5.296875 -9.21875 C 4.453125 -8.507812 4.03125 -7.484375 4.03125 -6.140625 C 4.03125 -4.816406 4.445312 -3.800781 5.28125 -3.09375 C 6.125 -2.382812 7.300781 -2.03125 8.8125 -2.03125 C 9.65625 -2.03125 10.410156 -2.132812 11.078125 -2.34375 C 11.753906 -2.5625 12.421875 -2.90625 13.078125 -3.375 L 14 -1.40625 C 13.375 -0.882812 12.601562 -0.488281 11.6875 -0.21875 C 10.78125 0.0390625 9.78125 0.171875 8.6875 0.171875 Z M 8.6875 0.171875 "/></g></g></g><g fill="#1e4794" fill-opacity="1"><g transform="translate(226.4571, 307.448022)"><g><path d="M 5.53125 0 L 5.53125 -10.1875 L 0.203125 -10.1875 L 0.203125 -12.296875 L 13.46875 -12.296875 L 13.46875 -10.1875 L 8.15625 -10.1875 L 8.15625 0 Z M 5.53125 0 "/></g></g></g><g fill="#1e4794" fill-opacity="1"><g transform="translate(241.66403, 307.448022)"><g/></g></g><g fill="#6acdeb" fill-opacity="1"><g transform="translate(249.138714, 307.448022)"><g><path d="M 1.9375 3.140625 L 1.9375 -12.296875 L 4.3125 -12.296875 L 4.3125 3.140625 Z M 1.9375 3.140625 "/></g></g></g><g fill="#1e4794" fill-opacity="1"><g transform="translate(256.937088, 307.448022)"><g/></g></g><g fill="#1e4794" fill-opacity="1"><g transform="translate(264.401443, 307.448022)"><g><path d="M 1.84375 0 L 1.84375 -12.296875 L 8.65625 -12.296875 C 10.3125 -12.296875 11.570312 -11.984375 12.4375 -11.359375 C 13.3125 -10.742188 13.75 -9.84375 13.75 -8.65625 C 13.75 -7.882812 13.5625 -7.234375 13.1875 -6.703125 C 12.8125 -6.179688 12.265625 -5.769531 11.546875 -5.46875 C 10.835938 -5.175781 9.984375 -5.003906 8.984375 -4.953125 L 9.140625 -5.109375 L 9.78125 -5.09375 C 10.25 -5.070312 10.671875 -4.953125 11.046875 -4.734375 C 11.429688 -4.523438 11.785156 -4.191406 12.109375 -3.734375 L 14.71875 0 L 11.828125 0 L 9.3125 -3.703125 C 9.144531 -3.953125 8.96875 -4.148438 8.78125 -4.296875 C 8.601562 -4.441406 8.378906 -4.546875 8.109375 -4.609375 C 7.835938 -4.679688 7.476562 -4.71875 7.03125 -4.71875 L 4.453125 -4.71875 L 4.453125 0 Z M 4.453125 -6.609375 L 8.390625 -6.609375 C 9.378906 -6.609375 10.09375 -6.765625 10.53125 -7.078125 C 10.976562 -7.398438 11.203125 -7.875 11.203125 -8.5 C 11.203125 -9.113281 10.976562 -9.566406 10.53125 -9.859375 C 10.082031 -10.148438 9.359375 -10.296875 8.359375 -10.296875 L 4.453125 -10.296875 Z M 4.453125 -6.609375 "/></g></g></g><g fill="#1e4794" fill-opacity="1"><g transform="translate(281.177816, 307.448022)"><g><path d="M 1.84375 0 L 1.84375 -12.296875 L 12.046875 -12.296875 L 12.046875 -10.28125 L 4.375 -10.28125 L 4.375 -7.265625 L 11.46875 -7.265625 L 11.46875 -5.234375 L 4.375 -5.234375 L 4.375 -2.03125 L 12.046875 -2.03125 L 12.046875 0 Z M 1.84375 0 "/></g></g></g><g fill="#1e4794" fill-opacity="1"><g transform="translate(296.001105, 307.448022)"><g><path d="M 6.53125 0 L -0.1875 -12.296875 L 2.734375 -12.296875 L 7.96875 -2.40625 L 7.46875 -2.40625 L 12.6875 -12.296875 L 15.53125 -12.296875 L 8.828125 0 Z M 6.53125 0 "/></g></g></g><g fill="#1e4794" fill-opacity="1"><g transform="translate(312.899544, 307.448022)"><g><path d="M 1.84375 0 L 1.84375 -12.296875 L 4.453125 -12.296875 L 4.453125 0 Z M 1.84375 0 "/></g></g></g><g fill="#1e4794" fill-opacity="1"><g transform="translate(320.730101, 307.448022)"><g><path d="M 6.53125 0 L -0.1875 -12.296875 L 2.734375 -12.296875 L 7.96875 -2.40625 L 7.46875 -2.40625 L 12.6875 -12.296875 L 15.53125 -12.296875 L 8.828125 0 Z M 6.53125 0 "/></g></g></g><g fill="#1e4794" fill-opacity="1"><g transform="translate(337.62854, 307.448022)"><g><path d="M 1.84375 0 L 1.84375 -12.296875 L 12.046875 -12.296875 L 12.046875 -10.28125 L 4.375 -10.28125 L 4.375 -7.265625 L 11.46875 -7.265625 L 11.46875 -5.234375 L 4.375 -5.234375 L 4.375 -2.03125 L 12.046875 -2.03125 L 12.046875 0 Z M 1.84375 0 "/></g></g></g><g clip-path="url(#02aed34fc7)"><path fill="#ffffff" d="M 128.621094 181.082031 L 119.246094 164.804688 L 109.863281 181.082031 C 108.515625 183.300781 106.15625 188.6875 106.15625 191.535156 C 106.15625 199.328125 112.015625 205.640625 119.246094 205.640625 C 126.476562 205.640625 132.335938 199.328125 132.335938 191.535156 C 132.335938 188.6875 129.96875 183.300781 128.621094 181.082031 Z M 128.621094 181.082031 " fill-opacity="1" fill-rule="nonzero"/></g><g clip-path="url(#6b39bdded1)"><path fill="#1e4794" d="M 128.621094 120.058594 L 119.246094 103.78125 L 109.863281 120.058594 C 108.515625 122.277344 106.15625 127.664062 106.15625 130.511719 C 106.15625 138.304688 112.015625 144.617188 119.246094 144.617188 C 126.476562 144.617188 132.335938 138.304688 132.335938 130.511719 C 132.335938 127.664062 129.96875 122.277344 128.621094 120.058594 Z M 128.621094 120.058594 " fill-opacity="1" fill-rule="nonzero"/></g></svg>